<mxfile host="app.diagrams.net" agent="Mozilla/5.0 (Macintosh; Intel Mac OS X 10_15_7) AppleWebKit/605.1.15 (KHTML, like Gecko) Version/18.5 Safari/605.1.15" version="28.2.5">
  <diagram name="Página-1" id="rrfgK-B9HafZjI3hFFOD">
    <mxGraphModel dx="1502" dy="1032" grid="1" gridSize="10" guides="1" tooltips="1" connect="1" arrows="1" fold="1" page="1" pageScale="1" pageWidth="827" pageHeight="1169" math="0" shadow="0">
      <root>
        <mxCell id="0" />
        <mxCell id="1" parent="0" />
        <mxCell id="FlJyeDntvMMo4emLiGUk-3" value="" style="shape=cube;whiteSpace=wrap;html=1;boundedLbl=1;backgroundOutline=1;darkOpacity=0.05;darkOpacity2=0.1;" vertex="1" parent="1">
          <mxGeometry x="274" y="300" width="280" height="150" as="geometry" />
        </mxCell>
        <mxCell id="FlJyeDntvMMo4emLiGUk-4" value="Dispositivo do usuario" style="text;html=1;align=center;verticalAlign=middle;whiteSpace=wrap;rounded=0;" vertex="1" parent="1">
          <mxGeometry x="319" y="310" width="190" height="50" as="geometry" />
        </mxCell>
        <mxCell id="FlJyeDntvMMo4emLiGUk-5" value="Navegador" style="rounded=0;whiteSpace=wrap;html=1;" vertex="1" parent="1">
          <mxGeometry x="354" y="345" width="120" height="60" as="geometry" />
        </mxCell>
        <mxCell id="FlJyeDntvMMo4emLiGUk-6" value="" style="endArrow=classic;html=1;rounded=0;exitX=0.55;exitY=0.95;exitDx=0;exitDy=0;exitPerimeter=0;" edge="1" parent="1" source="FlJyeDntvMMo4emLiGUk-7">
          <mxGeometry width="50" height="50" relative="1" as="geometry">
            <mxPoint x="400" y="610" as="sourcePoint" />
            <mxPoint x="426" y="670" as="targetPoint" />
          </mxGeometry>
        </mxCell>
        <mxCell id="FlJyeDntvMMo4emLiGUk-7" value="Internet" style="ellipse;shape=cloud;whiteSpace=wrap;html=1;" vertex="1" parent="1">
          <mxGeometry x="360" y="530" width="120" height="80" as="geometry" />
        </mxCell>
        <mxCell id="FlJyeDntvMMo4emLiGUk-8" value="&lt;span style=&quot;white-space: pre;&quot;&gt;Balanceador de Carga&lt;/span&gt;" style="shape=cube;whiteSpace=wrap;html=1;boundedLbl=1;backgroundOutline=1;darkOpacity=0.05;darkOpacity2=0.1;" vertex="1" parent="1">
          <mxGeometry x="315" y="680" width="210" height="70" as="geometry" />
        </mxCell>
        <mxCell id="FlJyeDntvMMo4emLiGUk-10" value="" style="endArrow=classic;html=1;rounded=0;entryX=0.475;entryY=0.088;entryDx=0;entryDy=0;entryPerimeter=0;exitX=0.511;exitY=0.993;exitDx=0;exitDy=0;exitPerimeter=0;" edge="1" parent="1" source="FlJyeDntvMMo4emLiGUk-3" target="FlJyeDntvMMo4emLiGUk-7">
          <mxGeometry width="50" height="50" relative="1" as="geometry">
            <mxPoint x="400" y="640" as="sourcePoint" />
            <mxPoint x="450" y="590" as="targetPoint" />
          </mxGeometry>
        </mxCell>
        <mxCell id="FlJyeDntvMMo4emLiGUk-11" value="" style="shape=cube;whiteSpace=wrap;html=1;boundedLbl=1;backgroundOutline=1;darkOpacity=0.05;darkOpacity2=0.1;" vertex="1" parent="1">
          <mxGeometry x="334" y="810" width="166" height="110" as="geometry" />
        </mxCell>
        <mxCell id="FlJyeDntvMMo4emLiGUk-12" value="" style="endArrow=classic;html=1;rounded=0;exitX=0;exitY=0;exitDx=115;exitDy=70;exitPerimeter=0;" edge="1" parent="1" source="FlJyeDntvMMo4emLiGUk-8">
          <mxGeometry width="50" height="50" relative="1" as="geometry">
            <mxPoint x="400" y="830" as="sourcePoint" />
            <mxPoint x="430" y="810" as="targetPoint" />
            <Array as="points">
              <mxPoint x="430" y="780" />
            </Array>
          </mxGeometry>
        </mxCell>
        <mxCell id="FlJyeDntvMMo4emLiGUk-13" value="Servidor Web" style="text;html=1;align=center;verticalAlign=middle;whiteSpace=wrap;rounded=0;" vertex="1" parent="1">
          <mxGeometry x="374" y="830" width="100" height="30" as="geometry" />
        </mxCell>
        <mxCell id="FlJyeDntvMMo4emLiGUk-14" value="Nginx/Apache&lt;div&gt;(Assets UI)&lt;/div&gt;" style="rounded=1;whiteSpace=wrap;html=1;" vertex="1" parent="1">
          <mxGeometry x="371" y="860" width="106" height="50" as="geometry" />
        </mxCell>
        <mxCell id="FlJyeDntvMMo4emLiGUk-15" value="" style="shape=cube;whiteSpace=wrap;html=1;boundedLbl=1;backgroundOutline=1;darkOpacity=0.05;darkOpacity2=0.1;" vertex="1" parent="1">
          <mxGeometry x="330" y="980" width="180" height="120" as="geometry" />
        </mxCell>
        <mxCell id="FlJyeDntvMMo4emLiGUk-16" value="Servidor de Aplicação" style="text;html=1;align=center;verticalAlign=middle;whiteSpace=wrap;rounded=0;" vertex="1" parent="1">
          <mxGeometry x="360" y="1000" width="130" height="30" as="geometry" />
        </mxCell>
        <mxCell id="FlJyeDntvMMo4emLiGUk-17" value="Container: API&lt;div&gt;(gateway + serviços)&lt;/div&gt;" style="rounded=1;whiteSpace=wrap;html=1;" vertex="1" parent="1">
          <mxGeometry x="365" y="1030" width="120" height="60" as="geometry" />
        </mxCell>
        <mxCell id="FlJyeDntvMMo4emLiGUk-18" value="" style="endArrow=classic;html=1;rounded=0;exitX=0.633;exitY=1.009;exitDx=0;exitDy=0;exitPerimeter=0;" edge="1" parent="1" source="FlJyeDntvMMo4emLiGUk-11">
          <mxGeometry width="50" height="50" relative="1" as="geometry">
            <mxPoint x="400" y="930" as="sourcePoint" />
            <mxPoint x="440" y="970" as="targetPoint" />
          </mxGeometry>
        </mxCell>
        <mxCell id="FlJyeDntvMMo4emLiGUk-19" value="" style="shape=cube;whiteSpace=wrap;html=1;boundedLbl=1;backgroundOutline=1;darkOpacity=0.05;darkOpacity2=0.1;" vertex="1" parent="1">
          <mxGeometry x="620" y="990" width="190" height="110" as="geometry" />
        </mxCell>
        <mxCell id="FlJyeDntvMMo4emLiGUk-20" value="Servidor de Relatórios" style="text;html=1;align=center;verticalAlign=middle;whiteSpace=wrap;rounded=0;" vertex="1" parent="1">
          <mxGeometry x="650" y="1010" width="150" height="30" as="geometry" />
        </mxCell>
        <mxCell id="FlJyeDntvMMo4emLiGUk-21" value="Motor de Relatórios&lt;div&gt;(Render/Export&lt;/div&gt;" style="rounded=1;whiteSpace=wrap;html=1;" vertex="1" parent="1">
          <mxGeometry x="665" y="1040" width="115" height="50" as="geometry" />
        </mxCell>
        <mxCell id="FlJyeDntvMMo4emLiGUk-22" value="" style="endArrow=classic;html=1;rounded=0;exitX=1.017;exitY=0.475;exitDx=0;exitDy=0;exitPerimeter=0;" edge="1" parent="1" source="FlJyeDntvMMo4emLiGUk-15">
          <mxGeometry width="50" height="50" relative="1" as="geometry">
            <mxPoint x="400" y="920" as="sourcePoint" />
            <mxPoint x="620" y="1037" as="targetPoint" />
          </mxGeometry>
        </mxCell>
        <mxCell id="FlJyeDntvMMo4emLiGUk-23" value="" style="shape=cube;whiteSpace=wrap;html=1;boundedLbl=1;backgroundOutline=1;darkOpacity=0.05;darkOpacity2=0.1;" vertex="1" parent="1">
          <mxGeometry x="330" y="1160" width="218" height="100" as="geometry" />
        </mxCell>
        <mxCell id="FlJyeDntvMMo4emLiGUk-24" value="Servidor de Banco de Dados" style="text;html=1;align=center;verticalAlign=middle;whiteSpace=wrap;rounded=0;" vertex="1" parent="1">
          <mxGeometry x="371" y="1180" width="160" height="20" as="geometry" />
        </mxCell>
        <mxCell id="FlJyeDntvMMo4emLiGUk-25" value="PostgreeSql/Mysql" style="shape=cylinder3;whiteSpace=wrap;html=1;boundedLbl=1;backgroundOutline=1;size=15;" vertex="1" parent="1">
          <mxGeometry x="395" y="1200" width="115" height="50" as="geometry" />
        </mxCell>
        <mxCell id="FlJyeDntvMMo4emLiGUk-26" value="" style="endArrow=classic;html=1;rounded=0;entryX=0;entryY=0;entryDx=99;entryDy=0;entryPerimeter=0;exitX=0;exitY=0;exitDx=100;exitDy=120;exitPerimeter=0;" edge="1" parent="1" source="FlJyeDntvMMo4emLiGUk-15" target="FlJyeDntvMMo4emLiGUk-23">
          <mxGeometry width="50" height="50" relative="1" as="geometry">
            <mxPoint x="400" y="1000" as="sourcePoint" />
            <mxPoint x="450" y="950" as="targetPoint" />
          </mxGeometry>
        </mxCell>
        <mxCell id="FlJyeDntvMMo4emLiGUk-27" value="TCP/IP" style="text;html=1;align=center;verticalAlign=middle;resizable=0;points=[];autosize=1;strokeColor=none;fillColor=none;" vertex="1" parent="1">
          <mxGeometry x="430" y="1118" width="60" height="30" as="geometry" />
        </mxCell>
        <mxCell id="FlJyeDntvMMo4emLiGUk-29" value="TCP/IP" style="text;html=1;align=center;verticalAlign=middle;resizable=0;points=[];autosize=1;strokeColor=none;fillColor=none;" vertex="1" parent="1">
          <mxGeometry x="440" y="928" width="60" height="30" as="geometry" />
        </mxCell>
        <mxCell id="FlJyeDntvMMo4emLiGUk-30" value="TCP/IP" style="text;html=1;align=center;verticalAlign=middle;resizable=0;points=[];autosize=1;strokeColor=none;fillColor=none;" vertex="1" parent="1">
          <mxGeometry x="420" y="758" width="60" height="30" as="geometry" />
        </mxCell>
        <mxCell id="FlJyeDntvMMo4emLiGUk-31" style="edgeStyle=orthogonalEdgeStyle;rounded=0;orthogonalLoop=1;jettySize=auto;html=1;exitX=0.5;exitY=1;exitDx=0;exitDy=0;entryX=0.5;entryY=0;entryDx=0;entryDy=0;entryPerimeter=0;" edge="1" parent="1" source="FlJyeDntvMMo4emLiGUk-24" target="FlJyeDntvMMo4emLiGUk-25">
          <mxGeometry relative="1" as="geometry" />
        </mxCell>
      </root>
    </mxGraphModel>
  </diagram>
</mxfile>
